<svg xmlns="http://www.w3.org/2000/svg" version="1.1" xmlns:xlink="http://www.w3.org/1999/xlink" xmlns:svgjs="http://svgjs.dev/svgjs" width="128" height="128" viewBox="0 0 128 128"><g transform="matrix(0.8046875,0,0,0.8046875,12.760752631578946,18.421562328937163)"><svg viewBox="0 0 95 84" data-background-color="#ffffff" preserveAspectRatio="xMidYMid meet" height="113" width="128" xmlns="http://www.w3.org/2000/svg" xmlns:xlink="http://www.w3.org/1999/xlink"><g id="tight-bounds" transform="matrix(1,0,0,1,-0.24049999999999727,0.10493700827112207)"><svg viewBox="0 0 95.48100000000001 83.79012598345774" height="83.79012598345774" width="95.48100000000001"><g><svg viewBox="0 0 95.48100000000001 83.79012598345774" height="83.79012598345774" width="95.48100000000001"><g><svg viewBox="0 0 95.48100000000001 83.79012598345774" height="83.79012598345774" width="95.48100000000001"><g id="textblocktransform"><svg viewBox="0 0 95.48100000000001 83.79012598345774" height="83.79012598345774" width="95.48100000000001" id="textblock"><g><svg viewBox="0 0 95.48100000000001 83.79012598345774" height="83.79012598345774" width="95.48100000000001"><g><svg viewBox="0 0 95.48100000000001 83.79012598345774" height="83.79012598345774" width="95.48100000000001"><g><svg xmlns="http://www.w3.org/2000/svg" xmlns:xlink="http://www.w3.org/1999/xlink" version="1.0" x="0" y="0" viewBox="5.387 10.85 89.226 78.301" enable-background="new 0 0 100 100" xml:space="preserve" height="83.79012598345774" width="95.48100000000001" class="icon-icon-0" data-fill-palette-color="accent" id="icon-0"><g fill="#ff585f" data-fill-palette-color="accent"><path fill="#ff585f" d="M27.075 36.955c-0.926 0-1.68 0.752-1.68 1.679v3.341c0 0.928 0.754 1.68 1.68 1.68h3.735c0.166 0.494 0.365 0.978 0.602 1.443l-3.085 3.086c-0.317 0.315-0.491 0.738-0.491 1.188 0 0.447 0.176 0.869 0.491 1.186l2.362 2.362c0.631 0.632 1.736 0.636 2.376 0l3.083-3.085c0.466 0.236 0.949 0.436 1.443 0.602v3.735c0 0.925 0.752 1.679 1.678 1.679h3.343c0.926 0 1.678-0.752 1.678-1.679v-3.735c0.495-0.166 0.979-0.365 1.444-0.602l3.084 3.085c0.634 0.634 1.74 0.634 2.374 0l2.36-2.36c0.317-0.316 0.494-0.738 0.494-1.188 0.002-0.449-0.173-0.87-0.49-1.188l-3.086-3.086c0.236-0.466 0.438-0.949 0.601-1.443h3.737c0.926 0 1.679-0.752 1.679-1.68v-3.341c0-0.927-0.753-1.679-1.679-1.679h-3.736c-0.164-0.498-0.365-0.98-0.602-1.45l3.084-3.087c0.317-0.316 0.494-0.736 0.494-1.188 0-0.447-0.175-0.869-0.494-1.188l-2.361-2.363c-0.635-0.635-1.741-0.631-2.372 0l-3.086 3.086c-0.47-0.236-0.951-0.438-1.444-0.603v-3.735c0-0.925-0.752-1.678-1.678-1.678H39.27c-0.924 0-1.676 0.752-1.676 1.678v3.735c-0.494 0.164-0.976 0.364-1.444 0.603l-3.084-3.088c-0.638-0.633-1.745-0.629-2.374 0.002l-2.364 2.365c-0.653 0.655-0.651 1.721 0.001 2.373l3.085 3.087c-0.235 0.47-0.437 0.952-0.603 1.45H27.075L27.075 36.955zM33.182 34.698l-3.467-3.466 2.164-2.164 3.463 3.467c0.293 0.293 0.75 0.352 1.106 0.141 0.724-0.425 1.491-0.744 2.281-0.945 0.403-0.104 0.685-0.467 0.685-0.885v-4.273h3.056v4.273c0 0.418 0.282 0.781 0.685 0.885 0.791 0.201 1.559 0.521 2.28 0.945 0.358 0.209 0.812 0.152 1.106-0.141l3.467-3.465 2.16 2.162-3.465 3.466c-0.293 0.295-0.352 0.75-0.14 1.108 0.423 0.715 0.741 1.484 0.948 2.282 0.104 0.404 0.466 0.687 0.881 0.687h4.275v3.057h-4.275c-0.415 0-0.778 0.284-0.881 0.684-0.206 0.797-0.524 1.565-0.948 2.282-0.211 0.356-0.153 0.812 0.14 1.106l3.465 3.464-2.16 2.163-3.467-3.469c-0.295-0.293-0.748-0.351-1.107-0.139-0.714 0.424-1.48 0.743-2.28 0.948-0.401 0.103-0.683 0.465-0.683 0.882v4.275h-3.057v-4.275c0-0.417-0.281-0.779-0.683-0.882-0.801-0.208-1.567-0.524-2.28-0.948-0.359-0.211-0.814-0.154-1.107 0.139l-3.465 3.469-2.162-2.163 3.466-3.464c0.294-0.295 0.351-0.75 0.14-1.106-0.422-0.716-0.74-1.485-0.947-2.282-0.104-0.399-0.467-0.684-0.881-0.684h-4.275v-3.057h4.275c0.416 0 0.777-0.282 0.881-0.687 0.207-0.798 0.525-1.567 0.948-2.282C33.532 35.448 33.476 34.991 33.182 34.698z" data-fill-palette-color="accent"></path><path fill="#ff585f" d="M40.941 46.094c3.191 0 5.789-2.596 5.789-5.787 0-3.199-2.598-5.798-5.789-5.798s-5.788 2.599-5.788 5.798C35.153 43.498 37.75 46.094 40.941 46.094zM40.941 36.33c2.188 0 3.968 1.783 3.968 3.977 0 2.188-1.78 3.967-3.968 3.967s-3.967-1.779-3.967-3.967C36.975 38.111 38.754 36.33 40.941 36.33z" data-fill-palette-color="accent"></path><path fill="#ff585f" d="M88.239 10.85H11.76c-3.514 0-6.373 2.857-6.373 6.371v49.168c0 3.514 2.858 6.373 6.373 6.373h26.404v9.105h-4.553c-2.008 0-3.643 1.632-3.643 3.639 0 2.012 1.635 3.645 3.643 3.645H66.39c2.007 0 3.64-1.633 3.64-3.645 0-2.007-1.633-3.639-3.64-3.639h-4.554v-9.105h26.403c3.515 0 6.374-2.859 6.374-6.373V17.221C94.613 13.707 91.754 10.85 88.239 10.85zM11.76 12.669h76.479c2.511 0 4.554 2.042 4.554 4.552v42.793H7.209V30.207h8.611c0.503 0 0.911-0.408 0.911-0.91 0-0.503-0.408-0.911-0.911-0.911H7.209v-3.643h8.606c0.502 0 0.91-0.408 0.91-0.91 0-0.503-0.408-0.91-0.91-0.91H7.209V19.27c0.035 0.006 0.072 0.01 0.11 0.01h13.958c0.503 0 0.911-0.407 0.911-0.908 0-0.503-0.408-0.911-0.911-0.911H7.319c-0.038 0-0.075 0.006-0.11 0.013v-0.252C7.209 14.71 9.25 12.669 11.76 12.669zM68.209 85.505c0 1.009-0.815 1.823-1.82 1.823H33.611c-1.003 0-1.82-0.814-1.82-1.823 0-1.003 0.816-1.817 1.82-1.817h32.777C67.394 83.688 68.209 84.502 68.209 85.505zM60.016 81.866H39.984v-9.105h20.031V81.866zM88.239 70.941H11.76c-2.51 0-4.551-2.043-4.551-4.555v-4.551h85.584v4.551C92.793 68.898 90.75 70.941 88.239 70.941z" data-fill-palette-color="accent"></path><circle fill="#ff585f" cx="24.988" cy="18.371" r="0.91" data-fill-palette-color="accent"></circle><path fill="#ff585f" d="M55.53 31.91c-0.292 0.095-0.528 0.297-0.667 0.57-0.138 0.274-0.162 0.584-0.066 0.873l0.728 2.227c0.192 0.585 0.854 0.924 1.444 0.732l2.507-0.821c0.223 0.305 0.47 0.593 0.739 0.86l-1.393 2.742c-0.139 0.271-0.163 0.584-0.066 0.874 0.095 0.293 0.299 0.528 0.568 0.663l2.089 1.061c0.548 0.276 1.261 0.043 1.539-0.502l1.39-2.744c0.377 0.06 0.754 0.088 1.131 0.088l0.82 2.508c0.153 0.473 0.592 0.79 1.086 0.79 0.123 0 0.241-0.019 0.356-0.06l2.224-0.726c0.6-0.196 0.928-0.844 0.733-1.444l-0.819-2.504c0.305-0.224 0.594-0.472 0.859-0.74l2.744 1.392c0.548 0.276 1.26 0.043 1.537-0.503l1.058-2.081c0.14-0.274 0.165-0.585 0.071-0.876-0.096-0.291-0.299-0.529-0.571-0.667l-2.744-1.392c0.06-0.373 0.089-0.752 0.089-1.129l2.51-0.822c0.6-0.193 0.927-0.844 0.729-1.44l-0.726-2.228c-0.193-0.584-0.855-0.924-1.444-0.729l-2.507 0.819c-0.227-0.31-0.473-0.597-0.741-0.865l1.39-2.741c0.141-0.272 0.165-0.584 0.07-0.873-0.096-0.293-0.298-0.529-0.573-0.668l-2.084-1.06c-0.547-0.28-1.262-0.042-1.538 0.502l-1.394 2.745c-0.375-0.061-0.753-0.088-1.129-0.088l-0.819-2.508c-0.191-0.588-0.843-0.931-1.443-0.733l-2.226 0.726c-0.599 0.197-0.927 0.844-0.731 1.445l0.819 2.506c-0.303 0.223-0.591 0.469-0.86 0.739l-2.744-1.392c-0.545-0.276-1.26-0.043-1.536 0.502l-1.06 2.088c-0.139 0.273-0.162 0.584-0.067 0.873 0.096 0.293 0.298 0.529 0.569 0.666l2.746 1.394c-0.06 0.375-0.089 0.754-0.089 1.133L55.53 31.91zM59.08 29.08l-3.088-1.566 0.996-1.965 3.086 1.565c0.245 0.124 0.546 0.067 0.729-0.14 0.393-0.442 0.836-0.822 1.319-1.131 0.234-0.148 0.339-0.438 0.251-0.699l-0.939-2.877 2.091-0.686 0.94 2.878c0.086 0.263 0.326 0.431 0.615 0.417 0.58-0.036 1.16 0.01 1.731 0.135 0.272 0.061 0.547-0.07 0.672-0.318l1.567-3.086 1.963 0.996-1.564 3.088c-0.126 0.246-0.068 0.548 0.139 0.729 0.438 0.387 0.818 0.832 1.133 1.323 0.15 0.233 0.438 0.337 0.701 0.25l2.873-0.943 0.685 2.097-2.873 0.938c-0.263 0.086-0.435 0.339-0.417 0.615 0.035 0.579-0.012 1.161-0.137 1.731-0.06 0.271 0.071 0.547 0.317 0.672l3.087 1.564-0.994 1.963-3.089-1.562c-0.245-0.125-0.547-0.068-0.729 0.141-0.387 0.438-0.828 0.818-1.316 1.131-0.234 0.146-0.336 0.436-0.251 0.699l0.94 2.874-2.094 0.683-0.938-2.873c-0.082-0.25-0.315-0.42-0.576-0.42-0.013 0-0.026 0.002-0.04 0.002-0.579 0.038-1.16-0.008-1.732-0.134-0.271-0.057-0.545 0.072-0.67 0.32l-1.565 3.085-1.963-0.996 1.567-3.088c0.125-0.247 0.066-0.549-0.143-0.731-0.439-0.385-0.818-0.829-1.132-1.317-0.148-0.232-0.438-0.338-0.7-0.25l-2.872 0.942-0.685-2.097 2.873-0.939c0.264-0.084 0.435-0.336 0.416-0.615-0.037-0.578 0.01-1.164 0.136-1.732C59.457 29.48 59.326 29.204 59.08 29.08z" data-fill-palette-color="accent"></path><path fill="#ff585f" d="M65.477 35.117c0.423 0 0.843-0.067 1.25-0.2 1.021-0.333 1.851-1.044 2.337-2.002 0.485-0.959 0.569-2.047 0.235-3.069-0.541-1.664-2.08-2.779-3.823-2.779-0.423 0-0.843 0.068-1.25 0.203-1.021 0.33-1.851 1.043-2.336 2.002-0.486 0.959-0.57 2.052-0.235 3.072C62.194 34.003 63.731 35.117 65.477 35.117zM62.971 29.82c0.34-0.668 0.919-1.168 1.633-1.399 0.283-0.093 0.577-0.142 0.871-0.142 1.218 0 2.291 0.783 2.671 1.943 0.233 0.711 0.174 1.473-0.165 2.143-0.34 0.67-0.919 1.166-1.631 1.4-0.284 0.092-0.578 0.139-0.873 0.139-1.219 0-2.291-0.779-2.669-1.936C62.572 31.253 62.631 30.491 62.971 29.82z" data-fill-palette-color="accent"></path></g></svg></g></svg></g></svg></g></svg></g></svg></g></svg></g><defs></defs></svg><rect width="95.48100000000001" height="83.79012598345774" fill="none" stroke="none" visibility="hidden"></rect></g></svg></g></svg>